# xmcd
#
# Track frame offsets: 
#        150
#        17611
#        34837
#        52714
#        70243
#        92930
#        107009
#        122573
#        141758
#        160702
#        177471
#        195061
#
# Disc length: 2834 seconds
#
# Revision: 1
# Processed by: cddbd v1.5.2PL0 Copyright (c) Steve Scherf et al.
# Submitted via: ExactAudioCopy v1.0b3
#
DISCID=920b100c
DTITLE=龙飘飘 - DTS ES 正品 龙腔飘越30年
DYEAR=2006
DGENRE=DTS ES
TTITLE0=爱的诗篇 
TTITLE1=夜来香
TTITLE2=感恩的心
TTITLE3=多少柔情多少泪
TTITLE4=女人花
TTITLE5=往事只能回味 
TTITLE6=月儿像柠檬
TTITLE7=明月千里寄相思 
TTITLE8=舞女
TTITLE9=难忘昨夜情 
TTITLE10=美酒加咖啡
TTITLE11=晚风
EXTD=
EXTT0=
EXTT1=
EXTT2=
EXTT3=
EXTT4=
EXTT5=
EXTT6=
EXTT7=
EXTT8=
EXTT9=
EXTT10=
EXTT11=
PLAYORDER=
